<?xml version="1.0" standalone="no"?><!DOCTYPE svg PUBLIC "-//W3C//DTD SVG 1.1//EN" "http://www.w3.org/Graphics/SVG/1.1/DTD/svg11.dtd"><svg t="1678587634401" class="icon" viewBox="0 0 1024 1024" version="1.1" xmlns="http://www.w3.org/2000/svg" p-id="4415" xmlns:xlink="http://www.w3.org/1999/xlink" width="200" height="200"><path d="M921.6 972.8V368.64h51.2v604.16h-51.2z m26.53696-689.89952L867.07712 198.144 660.6848 413.9264a23.86432 23.86432 0 0 1-34.816 0L385.65888 162.816 93.21984 468.51584a23.86944 23.86944 0 0 1-34.816 0 26.56768 26.56768 0 0 1 0-36.39808l309.84704-323.9168a23.86944 23.86944 0 0 1 34.816 0l240.20992 251.13088 188.98432-197.57056-81.05984-84.74624a25.19552 25.19552 0 0 1 24.61696-25.73312h172.31872a25.1904 25.1904 0 0 1 24.61696 25.73824v180.14208a25.1904 25.1904 0 0 1-24.61696 25.73824zM122.88 972.8H71.68v-358.4h51.2v358.4z m281.6 0H353.28V435.2h51.2v537.6z m286.72 0h-51.2v-409.6h51.2v409.6z" p-id="4416"></path></svg>